<?xml version="1.0" standalone="no"?>
<!DOCTYPE svg PUBLIC "-//W3C//DTD SVG 20010904//EN"
 "http://www.w3.org/TR/2001/REC-SVG-20010904/DTD/svg10.dtd">
<svg version="1.0" xmlns="http://www.w3.org/2000/svg"
 width="612.000000pt" height="612.000000pt" viewBox="0 0 612.000000 612.000000"
 preserveAspectRatio="xMidYMid meet">
<metadata>
Created by potrace 1.14, written by Peter Selinger 2001-2017
</metadata>
<g transform="translate(0.000000,612.000000) scale(0.100000,-0.100000)"
fill="#000000" stroke="none">
<path d="M2608 6015 c-2 -2 -96 -6 -208 -9 -113 -3 -205 -6 -205 -6 0 -1 -45
-3 -100 -5 -55 -1 -188 -6 -295 -11 -249 -10 -966 -10 -1267 -1 l-233 7 0 -72
c-6 -874 -16 -1515 -35 -2123 -3 -99 -8 -243 -10 -320 -12 -382 -36 -928 -51
-1160 -2 -44 -7 -114 -9 -155 -4 -75 -13 -194 -20 -280 -5 -65 -17 -209 -20
-250 -5 -66 -16 -195 -20 -230 -2 -19 -7 -66 -10 -105 -4 -38 -8 -86 -10 -105
-2 -19 -6 -66 -9 -105 -4 -38 -8 -86 -11 -105 -2 -19 -7 -62 -10 -95 -4 -33
-8 -78 -10 -100 -3 -22 -7 -60 -9 -85 -2 -25 -7 -69 -10 -97 -4 -29 -9 -77
-12 -105 -3 -29 -7 -64 -9 -78 -2 -14 -6 -56 -10 -95 -3 -38 -8 -81 -10 -95
-2 -14 -6 -51 -9 -82 l-6 -58 457 7 c539 7 816 7 1396 -1 l427 -6 1 27 c0 16
2 132 4 258 4 267 14 789 20 1020 13 468 15 562 20 700 9 305 15 487 20 612 3
70 8 175 10 233 9 226 16 379 20 465 3 50 7 146 10 215 3 69 7 159 10 200 3
41 8 116 11 165 7 115 11 185 19 315 4 58 7 115 6 128 0 12 3 23 7 23 4 1 30
3 57 4 28 2 102 6 165 10 147 9 476 9 605 0 90 -6 122 -9 190 -19 90 -14 245
-75 281 -110 8 -9 23 -21 32 -28 31 -24 76 -100 98 -166 41 -128 14 -293 -70
-417 -28 -41 -144 -155 -170 -166 -12 -5 -28 -13 -36 -19 -50 -31 -192 -77
-300 -96 -179 -31 -575 -24 -702 12 -13 4 -16 0 -13 -16 2 -11 6 -24 9 -28 3
-5 8 -22 11 -38 3 -16 14 -63 26 -104 27 -101 50 -188 94 -355 20 -77 38 -147
40 -155 7 -25 46 -184 50 -200 2 -8 4 -15 5 -15 1 0 4 -12 15 -60 2 -11 12
-49 20 -85 9 -36 20 -81 25 -100 4 -19 11 -45 14 -58 3 -12 8 -31 11 -43 2
-11 7 -29 10 -39 3 -10 7 -27 9 -37 2 -10 12 -47 21 -83 19 -71 24 -93 31
-130 2 -14 9 -36 14 -50 5 -14 11 -38 14 -55 3 -16 9 -46 15 -65 6 -19 12 -46
15 -60 2 -14 21 -90 41 -170 20 -80 42 -173 50 -207 8 -35 22 -93 31 -130 22
-94 25 -106 28 -123 1 -8 6 -28 10 -45 16 -64 26 -111 30 -135 2 -14 7 -32 10
-40 3 -8 8 -32 11 -54 3 -21 7 -42 10 -46 3 -5 7 -21 10 -37 2 -15 9 -50 16
-78 6 -27 12 -59 14 -70 2 -11 12 -56 23 -100 12 -44 23 -91 25 -105 3 -14 12
-52 21 -86 8 -33 17 -69 19 -80 3 -10 8 -34 12 -52 l8 -32 486 6 c575 8 1011
8 1554 -1 218 -3 397 -2 397 2 0 9 -38 128 -51 158 -5 11 -17 45 -28 75 -52
147 -146 414 -206 585 -37 105 -89 253 -117 330 -27 77 -85 246 -128 375 -44
129 -106 313 -139 408 -33 94 -57 172 -54 172 3 0 1 6 -5 13 -5 6 -17 35 -25
62 -8 28 -36 109 -61 181 -25 73 -46 138 -46 146 0 7 30 28 68 46 74 35 220
119 240 139 7 7 17 13 21 13 10 0 143 100 209 157 153 134 336 356 384 465 7
15 16 28 20 28 5 0 8 8 8 17 0 9 6 24 14 32 14 17 100 229 109 271 3 14 11 45
17 70 13 51 16 62 30 140 19 99 25 193 25 365 -1 242 -23 384 -87 570 -51 149
-171 375 -223 420 -6 6 -19 21 -28 35 -20 29 -133 145 -174 178 -62 50 -106
82 -112 82 -4 0 -16 8 -27 18 -24 21 -48 35 -139 82 -213 110 -541 205 -812
236 -18 2 -48 6 -65 8 -48 5 -206 19 -258 21 -25 2 -45 3 -45 4 0 10 -1528 25
-1537 16z"/>
</g>
</svg>
