<?xml version="1.0" encoding="utf-8"?>
<!-- Generator: Adobe Illustrator 14.0.0, SVG Export Plug-In . SVG Version: 6.00 Build 43363)  -->
<!DOCTYPE svg PUBLIC "-//W3C//DTD SVG 1.1//EN" "http://www.w3.org/Graphics/SVG/1.1/DTD/svg11.dtd">
<svg version="1.1" id="Layer_1" xmlns="http://www.w3.org/2000/svg" xmlns:xlink="http://www.w3.org/1999/xlink" x="0px" y="0px"
	 width="366.246px" height="487.534px" viewBox="247.718 59.528 366.246 487.534"
	 enable-background="new 247.718 59.528 366.246 487.534" xml:space="preserve">
<path d="M515,258.352c0,5.953-4.763,10.715-10.715,10.715H322.724c-5.953,0-10.715-4.762-10.715-10.715
	c0-5.953,4.762-10.715,10.715-10.715h180.965C509.642,247.042,515,251.804,515,258.352z M308.437,191.68v-48.218
	c0-9.524,7.739-17.858,17.858-17.858h172.036c9.524,0,17.858,7.739,17.858,17.858v48.218c0,9.524-7.738,17.858-17.858,17.858
	H326.295C316.176,209.539,308.437,201.8,308.437,191.68z M330.462,187.513h163.702v-39.884H330.462V187.513z M588.219,436.341
	l-0.596,90.482c0,18.453-12.501,19.645-14.882,19.645c-3.572,0-7.739-1.191-11.311-4.168l-29.764-25.002l-28.574,23.811
	c-2.976,2.383-7.738,5.953-13.096,5.953c-6.548,0-13.096-4.762-14.287-14.285c0-0.596,0-0.596,0-1.191v-17.859H276.887
	c-16.073,0-29.169-13.096-29.169-29.168V88.697c0-16.073,13.096-29.169,29.169-29.169h276.806c16.072,0,29.168,13.096,29.168,29.169
	v223.23c8.93,6.547,16.073,15.477,21.431,25.598C622.15,370.859,614.412,411.933,588.219,436.341z M584.647,348.24
	c-4.762-8.93-11.905-16.668-20.239-22.025c-1.786-1.191-3.572-1.787-4.763-2.977c-0.595,0-1.19-0.596-1.785-0.596
	c-2.382-1.191-4.167-1.785-6.549-2.977c0,0,0,0-0.595,0c-12.501-4.166-26.788-4.166-39.289,0.596h-0.595
	c-2.381,1.189-4.763,1.785-7.144,3.57c-20.239,10.717-31.55,31.551-31.55,52.98l0,0l0,0c0,9.525,2.381,19.049,7.144,28.574
	c1.19,2.381,2.381,4.166,4.167,6.547c0.595,0.596,0.595,1.191,1.19,1.787c1.19,1.785,2.381,2.977,3.571,4.166
	c0.596,0.596,0.596,0.596,1.19,1.191c1.786,1.785,3.572,3.572,5.358,4.762l0.595,0.596c1.786,1.189,2.977,2.381,4.763,3.572
	l0.595,0.594c0.596,0,0.596,0.596,1.19,0.596c0.596,0,1.19,0.596,1.786,0.596c0.596,0.596,1.786,0.596,2.381,1.189
	c13.691,6.549,29.169,7.74,44.051,3.572c0.596,0,1.786-0.596,2.382-0.596c0.595,0,0.595,0,1.19-0.594
	c0.595,0,1.19-0.596,1.785-0.596c1.786-0.596,3.572-1.787,5.357-2.381c1.786-1.191,3.572-1.787,4.763-2.977
	c1.786-1.191,2.977-2.381,4.763-3.572C591.791,405.386,598.934,373.835,584.647,348.24z M475.71,490.511v-42.266H322.724
	c-5.953,0-10.715-4.762-10.715-10.715s4.762-10.715,10.715-10.715h143.462l0,0c-0.595-1.191-1.19-1.785-2.381-2.977
	c-0.595-0.596-1.19-1.189-1.19-1.785c-1.19-1.191-1.786-2.977-2.977-4.764l-0.595-0.594c-1.191-2.381-2.382-4.764-3.572-7.74l0,0
	c-2.381-6.547-4.167-13.096-5.357-19.643h-127.39c-5.953,0-10.715-4.764-10.715-10.715c0-5.953,4.762-10.717,10.715-10.717h127.39
	c0.596-4.166,1.19-8.334,2.381-12.5c2.977-8.93,7.144-17.264,12.501-24.406H322.724c-5.953,0-10.715-4.762-10.715-10.715
	s4.762-10.715,10.715-10.715h166.083c1.19-0.596,2.381-1.191,3.571-2.381c2.382-1.191,4.763-2.383,7.739-3.572h0.595
	c9.524-4.168,20.24-5.953,30.955-5.953c10.119,0,19.644,1.785,28.573,5.357l0,0V88.697c0-4.167-2.977-7.144-7.144-7.144h-276.21
	c-4.167,0-7.144,2.977-7.144,7.144v394.076c0,4.166,2.977,7.143,7.144,7.143H475.71V490.511z M566.194,451.818
	c-0.596,0-0.596,0-1.19,0.596c0,0-0.596,0-0.596,0.594h-0.596c-1.19,0.596-2.381,0.596-3.571,1.191c-0.596,0-0.596,0-1.19,0.596
	c-0.596,0-1.19,0.596-1.786,0.596c0,0,0,0-0.595,0c0,0,0,0-0.596,0s-0.596,0-1.19,0.594h-0.596c-0.595,0-1.19,0-1.785,0.596
	c-0.596,0-1.786,0.596-2.977,0.596c-0.596,0-1.786,0.596-2.382,0.596l0,0l0,0c-1.19,0-2.381,0.594-4.166,0.594
	c-0.596,0-1.786,0-2.382,0.596h-0.595c-0.596,0-0.596,0-1.19,0l0,0c-0.596,0-0.596,0-1.19,0c-1.786,0-3.572,0-4.763,0l0,0l0,0
	c-0.596,0-0.596,0-1.19,0c-0.596,0-0.596,0-1.19,0l0,0l0,0c-1.786,0-4.167,0-5.953-0.596l0,0l0,0l0,0h-0.595h-0.596
	c-7.738-0.594-15.478-2.975-22.025-5.951l0,0l0,0c-0.596-0.596-1.786-0.596-2.381-1.191l0,0l-0.596,64.887l26.788-22.621
	c1.785-1.787,4.762-2.381,7.143-2.381c2.382,0,5.358,0.594,7.144,2.381l26.788,22.621V451.818z"/>
</svg>
