<?xml version="1.0" encoding="utf-8"?>
<!-- Generator: Adobe Illustrator 14.0.0, SVG Export Plug-In . SVG Version: 6.00 Build 43363)  -->
<!DOCTYPE svg PUBLIC "-//W3C//DTD SVG 1.1//EN" "http://www.w3.org/Graphics/SVG/1.1/DTD/svg11.dtd">
<svg version="1.1" id="layer" xmlns="http://www.w3.org/2000/svg" xmlns:xlink="http://www.w3.org/1999/xlink" x="0px" y="0px"
	 width="637.735px" height="347.764px" viewBox="91.441 69.115 637.735 347.764"
	 enable-background="new 91.441 69.115 637.735 347.764" xml:space="preserve">
<g>
	<path fill="#005097" d="M199.45,105.635v274.724c0,20.359-20.177,36.52-45.011,36.52c-24.377,0-44.555-16.16-44.555-36.52V105.635
		c0-25.655-18.443-36.52-18.443-36.52h72.675C198.08,69.115,199.45,103.809,199.45,105.635"/>
	<path fill="#005097" d="M694.482,344.843c3.835,0,34.694,2.1,34.694,36.338c0,34.236-31.134,35.697-34.694,35.697H553.878l0,0
		c-23.738-0.639-43.094-16.525-43.094-36.52V105.635c0-25.655-18.442-36.52-18.442-36.52h72.675
		c33.964,0,35.334,34.694,35.334,36.52v218.482c0,0,0.273,20.727,19.173,20.727"/>
	<path fill="#005097" d="M400.037,167.993c0-24.56-24.468-36.063-35.881-36.063s-48.298-0.092-48.298-0.092v72.219h48.298
		C374.656,204.148,400.037,192.553,400.037,167.993 M368.173,69.115c78.519,0,121.887,42.363,121.887,104.539
		s-43.368,102.805-121.887,102.805h-50.946v103.9c0,20.359-20.634,36.52-45.65,36.52c-25.473,0-46.107-16.16-46.107-36.52V105.635
		c0-20.634-19.355-36.52-19.355-36.52H368.173z"/>
</g>
</svg>
